# xmcd CD database file generated by OrangeCD 5.2
#
# Track frame offsets:
#	150
#	11915
#	28355
#	41022
#	50415
#	60845
#	71560
#	83082
#	91580
#	105455
#	118525
#	130485
#	140990
#	151572
#	159760
#	174040
#	184245
#	197030
#	208650
#	226872
#
# Disc length: 3283 seconds
#
# Revision: 0
# Processed by: cddbd v1.5.1PL0 Copyright (c) Steve Scherf et al.
# Submitted via: OrangeCD 5.2
#
DISCID=010cd114
DTITLE=The Cobras - Once Bitten
DYEAR=1996
DGENRE=Country
TTITLE0=Guitar Pickin' Man
TTITLE1=High Heled Sneakers
TTITLE2=Sweet Sweet Girl
TTITLE3=Lonesome Train
TTITLE4=I'm Gonna Tell
TTITLE5=Searchin'
TTITLE6=Spend The Night
TTITLE7=Getting Ready To Rock
TTITLE8=Don't Let Go
TTITLE9=One More For The Road
TTITLE10=Dance, Dance, Girl
TTITLE11=Driving Wheel
TTITLE12=Lotta Lovin'
TTITLE13=Try Me
TTITLE14=Hot Rod
TTITLE15=Long Blonde Hair
TTITLE16=Whistle Stop
TTITLE17=Doing It Right
TTITLE18=One Kiss, One Hug, One Girl
TTITLE19=That Girl's The One
EXTD=
EXTT0=
EXTT1=
EXTT2=
EXTT3=
EXTT4=
EXTT5=
EXTT6=
EXTT7=
EXTT8=
EXTT9=
EXTT10=
EXTT11=
EXTT12=
EXTT13=
EXTT14=
EXTT15=
EXTT16=
EXTT17=
EXTT18=
EXTT19=
PLAYORDER=
